<svg width="64" height="64" viewBox="0 0 64 64" fill="none" xmlns="http://www.w3.org/2000/svg">
  <rect width="64" height="64" rx="18" fill="#0B1020"/>
  <rect x="4" y="4" width="56" height="56" rx="14" fill="url(#bg)" stroke="#C9A227" stroke-opacity="0.35"/>
  <path d="M15 46V18H20.4L28.8 31.6L37.2 18H42.6V46H37.4V27.3L29.8 39.5H27.7L20.2 27.3V46H15Z" fill="#C9A227"/>
  <path d="M49 18V37.8C49 40.7 48.2 42.9 46.5 44.5C44.8 46.1 42.5 46.9 39.5 46.9C37.4 46.9 35.5 46.5 33.8 45.7V40.9C35.4 41.8 36.9 42.2 38.4 42.2C39.9 42.2 41 41.8 41.8 41.1C42.6 40.3 43 39.1 43 37.4V18H49Z" fill="#F5F1E8"/>
  <defs>
    <linearGradient id="bg" x1="8" y1="8" x2="56" y2="56" gradientUnits="userSpaceOnUse">
      <stop stop-color="#11182D"/>
      <stop offset="1" stop-color="#18233E"/>
    </linearGradient>
  </defs>
</svg>
